<?xml version="1.0" standalone="no"?>
<!DOCTYPE svg PUBLIC "-//W3C//DTD SVG 20010904//EN"
 "http://www.w3.org/TR/2001/REC-SVG-20010904/DTD/svg10.dtd">
<svg version="1.0" xmlns="http://www.w3.org/2000/svg"
 width="672.000000pt" height="672.000000pt" viewBox="0 0 672.000000 672.000000"
 preserveAspectRatio="xMidYMid meet">
<metadata>
Created by potrace 1.14, written by Peter Selinger 2001-2017
</metadata>
<g transform="translate(0.000000,672.000000) scale(0.100000,-0.100000)"
fill="#000000" stroke="none">
<path d="M1733 4458 c-35 -82 -42 -93 -64 -92 -132 7 -449 15 -449 12 0 -1 81
-61 180 -133 98 -71 179 -135 179 -141 1 -7 -34 -111 -78 -233 -43 -122 -75
-221 -70 -221 6 0 283 161 395 231 l31 19 204 -144 c112 -79 205 -140 207
-136 2 5 -22 102 -52 217 -30 114 -56 216 -58 227 -2 14 22 34 102 85 58 36
137 86 175 110 l69 43 -27 15 c-19 10 -87 17 -219 23 -105 5 -194 13 -198 17
-4 4 -15 33 -24 63 l-16 55 -107 34 c-60 19 -115 36 -124 38 -12 4 -26 -18
-56 -89z"/>
<path d="M4035 4449 c-108 -11 -317 -48 -328 -59 -5 -4 17 -101 48 -215 31
-114 55 -211 53 -216 -2 -6 -93 54 -203 131 l-200 141 -7 -38 c-4 -21 -7 -81
-7 -133 0 -91 3 -105 77 -335 89 -276 66 -252 237 -255 61 -2 159 -5 219 -9
l110 -6 -185 -113 c-101 -61 -190 -116 -198 -121 -12 -7 -3 -49 49 -241 34
-127 60 -233 58 -235 -8 -8 -403 277 -407 293 -2 9 4 203 14 432 9 228 15 431
13 450 -3 30 -16 3 -97 -192 l-95 -228 -95 1 c-53 1 -160 4 -239 8 -78 3 -142
4 -142 1 1 -3 80 -63 176 -135 97 -71 177 -133 180 -136 2 -4 -32 -107 -76
-229 -44 -123 -78 -225 -76 -227 2 -3 94 47 203 111 109 63 205 118 214 121
23 9 15 -223 -10 -280 -10 -22 -56 -132 -102 -244 l-84 -203 -210 7 c-115 3
-222 8 -237 11 -16 3 -28 2 -28 -3 1 -4 80 -66 176 -138 97 -71 177 -133 179
-136 3 -3 -32 -106 -76 -229 -44 -122 -78 -225 -76 -227 4 -4 416 232 428 245
4 4 15 215 25 470 10 254 20 462 23 462 4 0 40 -107 81 -238 l76 -237 69 -7
c39 -4 145 -11 237 -14 93 -3 166 -10 163 -14 -3 -5 -83 -56 -178 -114 -94
-58 -178 -110 -186 -115 -11 -7 -3 -50 49 -241 34 -127 60 -233 58 -235 -2 -2
-94 59 -203 136 -231 163 -213 164 -214 -16 l0 -110 77 -240 78 -240 80 -7
c43 -4 150 -11 236 -14 87 -3 156 -9 153 -14 -2 -4 -88 -58 -190 -120 -102
-62 -185 -117 -185 -122 0 -5 27 -110 61 -234 34 -124 59 -227 57 -229 -2 -2
-93 59 -202 136 -109 77 -201 137 -204 134 -3 -3 -9 -92 -13 -198 -4 -105 -10
-239 -13 -296 l-6 -104 198 6 c745 23 1403 308 1907 828 418 431 663 960 714
1544 12 136 71 1230 74 1374 l2 94 -80 49 c-93 57 -491 258 -511 258 -9 0
-303 -178 -322 -195 -1 -1 25 -107 58 -235 34 -128 60 -234 58 -235 -2 -2 -59
37 -128 86 -69 49 -161 114 -206 145 l-80 55 -214 -126 c-117 -69 -214 -124
-216 -122 -2 2 32 104 75 228 43 123 77 227 75 231 -3 4 -86 66 -185 139 -99
72 -178 133 -177 134 2 2 108 -1 237 -7 128 -5 237 -6 241 -1 12 12 61 136 56
141 -8 7 -90 23 -221 43 -153 23 -413 32 -540 18z m1200 -1442 c99 -4 207 -11
239 -15 l59 -7 -191 -119 c-106 -66 -192 -122 -192 -125 0 -4 27 -109 61 -235
33 -125 59 -230 57 -231 -2 -2 -59 37 -128 86 -69 49 -162 114 -206 145 l-82
56 -212 -126 c-117 -70 -214 -125 -216 -123 -2 2 32 106 76 232 45 126 77 231
72 234 -34 21 -361 265 -359 267 1 1 107 -2 235 -8 132 -6 237 -7 242 -2 6 7
93 211 192 454 9 22 21 -6 92 -225 l82 -250 179 -8z m-125 -1208 c58 -4 155
-8 215 -9 180 -3 181 1 -35 -134 -104 -65 -190 -122 -190 -126 0 -4 27 -110
60 -235 34 -125 60 -229 58 -230 -2 -1 -95 62 -207 142 -112 79 -209 142 -215
140 -6 -3 -103 -59 -215 -126 -112 -67 -206 -120 -208 -118 -2 2 33 107 77
232 44 126 77 231 72 234 -46 31 -361 265 -359 267 1 2 107 -2 236 -8 130 -6
236 -6 241 -2 6 7 93 212 192 454 9 22 21 -6 92 -225 l82 -250 104 -6z"/>
<path d="M3206 4260 c-87 -27 -162 -52 -166 -57 -12 -13 -81 -205 -76 -210 2
-3 100 51 218 120 211 123 213 125 216 161 4 46 7 46 -192 -14z"/>
<path d="M5086 4288 c22 -72 16 -68 111 -68 49 0 106 -3 128 -6 67 -11 29 11
-98 55 -139 48 -151 50 -141 19z"/>
<path d="M1743 3393 c-55 -131 -104 -237 -109 -237 -5 1 -112 5 -239 9 l-230
7 150 -111 c83 -62 165 -122 182 -134 18 -12 33 -26 33 -32 0 -5 -35 -110 -79
-232 -43 -123 -75 -223 -71 -223 6 0 263 150 396 231 l31 19 204 -144 c112
-79 205 -139 207 -133 1 7 -24 111 -57 232 -32 121 -57 223 -55 226 2 4 89 60
194 125 l191 119 -143 8 c-79 4 -187 11 -241 15 l-99 7 -75 235 c-41 129 -79
239 -83 243 -4 4 -52 -99 -107 -230z"/>
<path d="M1695 2188 l-100 -240 -240 7 -240 7 126 -94 c70 -51 152 -111 183
-133 30 -22 56 -44 56 -49 0 -11 -149 -435 -158 -450 -10 -18 32 5 234 125
l202 119 204 -143 c111 -79 204 -139 205 -133 2 6 -24 110 -56 231 -32 121
-57 223 -55 227 3 4 82 55 177 114 94 59 178 113 186 119 11 10 -10 14 -105
19 -66 3 -172 10 -238 14 l-119 7 -77 243 c-43 134 -80 245 -82 247 -2 2 -48
-105 -103 -237z"/>
<path d="M3180 1308 l-95 -230 -200 7 c-110 3 -217 8 -237 11 -21 3 -38 2 -38
-3 0 -4 69 -59 153 -120 84 -62 164 -123 180 -135 l27 -23 -80 -224 c-44 -123
-79 -226 -77 -228 4 -4 416 232 428 245 8 8 43 876 38 909 -3 13 -39 -64 -99
-209z"/>
</g>
</svg>
