<?xml version="1.0" encoding="utf-8"?>
<!-- Generator: Adobe Illustrator 27.4.0, SVG Export Plug-In . SVG Version: 6.00 Build 0)  -->
<svg version="1.1" id="Ebene_1" xmlns="http://www.w3.org/2000/svg" xmlns:xlink="http://www.w3.org/1999/xlink" x="0px" y="0px"
	 viewBox="0 0 20 20" style="enable-background:new 0 0 20 20;" xml:space="preserve">
<g>
	<path d="M10.002,4.871c-2.838,0-5.127,2.289-5.127,5.127s2.289,5.127,5.127,5.127s5.127-2.289,5.127-5.127
		S12.84,4.871,10.002,4.871z M10.002,13.331c-1.834,0-3.333-1.495-3.333-3.333s1.495-3.333,3.333-3.333s3.333,1.495,3.333,3.333
		S11.836,13.331,10.002,13.331L10.002,13.331z M16.534,4.661c0,0.665-0.535,1.196-1.196,1.196c-0.665,0-1.196-0.535-1.196-1.196
		s0.535-1.196,1.196-1.196C15.999,3.466,16.534,4.001,16.534,4.661z M19.93,5.875c-0.076-1.602-0.442-3.021-1.615-4.19
		c-1.169-1.169-2.588-1.535-4.19-1.615c-1.651-0.094-6.599-0.094-8.25,0c-1.597,0.076-3.016,0.442-4.19,1.611
		S0.151,4.269,0.07,5.871c-0.094,1.651-0.094,6.599,0,8.25c0.076,1.602,0.442,3.021,1.615,4.19c1.173,1.169,2.588,1.535,4.19,1.615
		c1.651,0.094,6.599,0.094,8.25,0c1.602-0.076,3.021-0.442,4.19-1.615c1.169-1.169,1.535-2.588,1.615-4.19
		C20.023,12.47,20.023,7.526,19.93,5.875L19.93,5.875z M17.797,15.892c-0.348,0.875-1.022,1.548-1.901,1.901
		c-1.316,0.522-4.439,0.402-5.894,0.402S5.42,18.31,4.108,17.793c-0.875-0.348-1.548-1.022-1.901-1.901
		c-0.522-1.316-0.402-4.439-0.402-5.894S1.69,5.416,2.207,4.104c0.348-0.875,1.022-1.548,1.901-1.901
		c1.316-0.522,4.439-0.402,5.894-0.402s4.582-0.116,5.894,0.402c0.875,0.348,1.548,1.022,1.901,1.901
		c0.522,1.316,0.402,4.439,0.402,5.894S18.319,14.58,17.797,15.892z"/>
</g>
</svg>
