<?xml version="1.0" encoding="utf-8"?>
<!-- Generator: Adobe Illustrator 27.4.0, SVG Export Plug-In . SVG Version: 6.00 Build 0)  -->
<svg version="1.1" id="Ebene_1" xmlns="http://www.w3.org/2000/svg" xmlns:xlink="http://www.w3.org/1999/xlink" x="0px" y="0px"
	 viewBox="0 0 20 20" style="enable-background:new 0 0 20 20;" xml:space="preserve">
<g>
	<path d="M7.521,12.936h-2.48c-1.777,0-3.223-1.446-3.223-3.224s1.446-3.223,3.223-3.223h2.48c0.502,0,0.909-0.407,0.909-0.909
		S8.023,4.671,7.521,4.671h-2.48C2.262,4.671,0,6.933,0,9.712s2.262,5.042,5.041,5.042h2.48c0.502,0,0.909-0.407,0.909-0.909
		C8.43,13.343,8.023,12.936,7.521,12.936z"/>
	<path d="M14.958,4.671H12.48c-0.502,0-0.909,0.407-0.909,0.909s0.407,0.909,0.909,0.909h2.479c1.777,0,3.224,1.446,3.224,3.223
		s-1.446,3.224-3.224,3.224H12.48c-0.502,0-0.909,0.407-0.909,0.909c0,0.502,0.407,0.909,0.909,0.909h2.479
		c2.78,0,5.042-2.262,5.042-5.042S17.738,4.671,14.958,4.671z"/>
	<path d="M5.785,9.712c0,0.502,0.407,0.909,0.909,0.909h6.612c0.502,0,0.909-0.407,0.909-0.909s-0.407-0.909-0.909-0.909H6.694
		C6.192,8.803,5.785,9.21,5.785,9.712z"/>
</g>
</svg>
