<?xml version="1.0" encoding="utf-8"?>
<!-- Generator: Adobe Illustrator 27.4.0, SVG Export Plug-In . SVG Version: 6.00 Build 0)  -->
<svg version="1.1" id="Ebene_1" xmlns="http://www.w3.org/2000/svg" xmlns:xlink="http://www.w3.org/1999/xlink" x="0px" y="0px"
	 viewBox="0 0 20 20" style="enable-background:new 0 0 20 20;" xml:space="preserve">
<g>
	<path d="M10,0C4.477,0,0,4.477,0,10s4.477,10,10,10c5.523,0,10-4.477,10-10S15.523,0,10,0z M15.348,8.934
		c-1.093,0-2.107-0.342-2.934-0.922V12.2c0,2.092-1.741,3.793-3.881,3.793c-0.827,0-1.594-0.255-2.224-0.687
		c0,0-0.001-0.001-0.001-0.001c-1-0.687-1.656-1.822-1.656-3.105c0-2.091,1.741-3.793,3.881-3.793c0.178,0,0.352,0.014,0.523,0.037
		v0.488l0,0v1.616c-0.166-0.051-0.341-0.08-0.523-0.08c-0.977,0-1.772,0.777-1.772,1.732c0,0.665,0.386,1.243,0.95,1.533
		c0,0,0,0,0,0c0.246,0.127,0.525,0.199,0.822,0.199c0.955,0,1.734-0.742,1.769-1.667l0.003-8.259h2.109
		c0,0.179,0.018,0.353,0.05,0.523h0c0.149,0.785,0.626,1.459,1.286,1.88c0,0,0,0.001,0.001,0.001
		c0.46,0.293,1.008,0.464,1.597,0.464v0.459c0,0,0,0,0,0V8.934z"/>
</g>
</svg>
