<svg id="Gruppe_2" data-name="Gruppe 2" xmlns="http://www.w3.org/2000/svg" xmlns:xlink="http://www.w3.org/1999/xlink" width="294.281" height="51.118" viewBox="0 0 294.281 51.118">
  <defs>
    <clipPath id="clip-path">
      <rect id="Rechteck_1" data-name="Rechteck 1" width="294.281" height="51.118" fill="none"/>
    </clipPath>
  </defs>
  <g id="Gruppe_1" data-name="Gruppe 1" clip-path="url(#clip-path)">
    <path id="Pfad_1" data-name="Pfad 1" d="M55.534,16.318a18.565,18.565,0,0,0-.2-5.548A12.644,12.644,0,0,0,51.7,3.859a14.058,14.058,0,0,0-4.035-2.673A13.121,13.121,0,0,0,43.731.026a3.364,3.364,0,0,0-1.715.2,1.178,1.178,0,0,0-.555,1.866,1.179,1.179,0,0,0,.353.353c.4.353.555.3.807-.151a.156.156,0,0,1,.05-.1c.05-.3.252-.4.555-.454a3.129,3.129,0,0,1,1.362.1A13.432,13.432,0,0,1,48.17,3.2a6.387,6.387,0,0,1,2.623,2.421,14,14,0,0,1,1.816,6.3,22.338,22.338,0,0,1-.656,6.86,45.586,45.586,0,0,1-4.035,10.491,44.57,44.57,0,0,1-6.507,9.584,34.922,34.922,0,0,1-9.634,7.768,12.843,12.843,0,0,1-4.187,1.412,3.622,3.622,0,0,1-3.279-1.21A4.482,4.482,0,0,1,23.3,44.615a11.553,11.553,0,0,1,.05-4.741,34.7,34.7,0,0,1,2.018-7.112c1.412-3.581,3.026-7.112,4.54-10.643.656-1.665,1.412-3.279,2.068-4.943a11.723,11.723,0,0,0,.353-1.261,1.469,1.469,0,0,0-.454-1.261,5.223,5.223,0,0,0-.858-.605,1.7,1.7,0,0,0-2.27.151c-.656.5-1.261,1.059-1.866,1.614a51.36,51.36,0,0,0-5.448,6c-2.623,3.379-5.2,6.809-7.566,10.391-1.816,2.774-3.581,5.548-5.347,8.323a68.38,68.38,0,0,1-4.741,6.608c-.05.1-.1.2-.252.2v-.1c0-.1.05-.2.05-.353.605-2.018,1.362-4.035,2.169-6,2.118-4.943,4.439-9.785,6.759-14.577,1.412-2.875,2.875-5.7,4.388-8.524,1.059-1.968,2.119-3.884,3.178-5.851.706-1.311,1.412-2.572,2.017-3.884a10.819,10.819,0,0,0,.757-1.917A1.435,1.435,0,0,0,22.6,4.868a4.592,4.592,0,0,0-1.059-.908.764.764,0,0,0-1.11.2,3.667,3.667,0,0,0-.605,1.16,8.216,8.216,0,0,1-.555,1.16c-1.059,1.715-2.119,3.43-3.127,5.145-1.967,3.48-3.884,6.91-5.649,10.492C8.776,25.75,7.061,29.432,5.4,33.064c-1.261,2.774-2.522,5.5-3.531,8.373a34.275,34.275,0,0,0-1.715,6.3A9.429,9.429,0,0,0,0,49.457a1.455,1.455,0,0,0,1.463,1.564c.05,0,.1.051.2.051a3.076,3.076,0,0,0,2.875-.908c.3-.353.655-.656.958-1.009a69.265,69.265,0,0,0,5.044-6.91c1.917-2.926,3.783-5.9,5.7-8.827s4.035-5.7,6.154-8.474A57.729,57.729,0,0,1,26.935,19.6c.152-.1.2-.252.454-.353a4.913,4.913,0,0,1-.3.706c-1.312,3.027-2.623,6.053-3.834,9.13a47.405,47.405,0,0,0-2.572,7.969,22.6,22.6,0,0,0-.555,5.851,12.881,12.881,0,0,0,.655,3.077,5.3,5.3,0,0,0,3.581,3.279,9.469,9.469,0,0,0,3.178.3,15.441,15.441,0,0,0,4.943-1.211,24.339,24.339,0,0,0,3.732-2.068,41.983,41.983,0,0,0,9.029-8.121,51.108,51.108,0,0,0,8.071-13.518,29.9,29.9,0,0,0,2.219-8.323" transform="translate(0 0)" fill="#fff"/>
    <path id="Pfad_2" data-name="Pfad 2" d="M369.22,54.7a1.782,1.782,0,0,0,1.261-1.564.607.607,0,0,0-.3-.656c-.151-.05-.252-.151-.4-.151s-.2-.05-.252-.2a.888.888,0,0,0-.807-.555c-.2,0-.353.151-.5.353a3.033,3.033,0,0,0-.454,1.866,1.128,1.128,0,0,0,1.463.908m-.05-1.816c.05-.05.1-.151.2-.1.05.05.05.1.05.2a1.431,1.431,0,0,1-.4.555.978.978,0,0,1,.151-.656" transform="translate(-262.897 -36.869)" fill="#fff"/>
    <path id="Pfad_3" data-name="Pfad 3" d="M292.361,48.353a2.507,2.507,0,0,0-1.059.05,1.606,1.606,0,0,1-1.16-.2,2.785,2.785,0,0,1-1.311-2.169l-.151-1.362a1.743,1.743,0,0,0-.605-1.059,2.733,2.733,0,0,0-2.22-.5,4.07,4.07,0,0,0-1.513.656,16.066,16.066,0,0,0-3.581,3.077c-1.412,1.665-2.724,3.43-3.984,5.246-.605.908-1.211,1.866-1.866,2.774,0-.05,0-.05-.05-.05.05-.1.05-.2.1-.252.5-1.16,1.009-2.27,1.513-3.43.857-1.816,1.664-3.632,2.371-5.549a8.388,8.388,0,0,0,.3-1.059c.05-.252.1-.454-.05-.656a1.836,1.836,0,0,0-1.16-.857c-.4-.051-.605.2-.756.5-.605,1.16-1.211,2.27-1.816,3.43-1.417,2.692-2.682,5.46-3.835,8.266l-.048.056a41.482,41.482,0,0,1-3.127,3.48c-.757.706-1.513,1.412-2.321,2.169a15.971,15.971,0,0,1-1.715,1.412,10.442,10.442,0,0,1-2.623,1.513,2.1,2.1,0,0,1-1.362.05,3.369,3.369,0,0,1-2.371-2.068,7.718,7.718,0,0,1-.555-2.421,11.836,11.836,0,0,1,1.059-5.094c.151-.353.151-.353.454-.252a8.815,8.815,0,0,0,1.917.454,7.846,7.846,0,0,0,3.581-.706,20.8,20.8,0,0,0,3.985-2.37,19.366,19.366,0,0,0,3.178-2.926,5.76,5.76,0,0,0,1.109-2.219,2.707,2.707,0,0,0-.5-2.472,3.458,3.458,0,0,0-1.059-.858,5.838,5.838,0,0,0-2.421-.706,6.061,6.061,0,0,0-3.531.605,15.242,15.242,0,0,0-3.935,2.723,22.394,22.394,0,0,0-5.3,7.465c-.014.032-.026.064-.04.1a3.171,3.171,0,0,0-.464-.147,11.6,11.6,0,0,0-2.27-.252,29.559,29.559,0,0,0-4.691.454c-1.311.252-2.572.555-3.833.908-.454.151-.5.1-.605-.353a6.207,6.207,0,0,1-.1-1.009,7.027,7.027,0,0,1,.1-2.522,6.414,6.414,0,0,1,4.237-4.741,2.019,2.019,0,0,1,.959-.1.633.633,0,0,1,.555.3,2.267,2.267,0,0,1,.252,1.513c0,.1-.051.2-.051.353a.568.568,0,0,0,.4.605.587.587,0,0,0,.807-.252,1.565,1.565,0,0,0,.3-.656,2.8,2.8,0,0,0-.555-2.169,4.46,4.46,0,0,0-1.513-1.211,2.777,2.777,0,0,0-1.766-.4,6.974,6.974,0,0,0-4.842,2.875,7.711,7.711,0,0,0-1.412,4.186,16.617,16.617,0,0,0,.353,3.884v.005q-.437.445-.87.9a17.894,17.894,0,0,0-5.689,3.23,11.922,11.922,0,0,0-3.077,3.985,9.662,9.662,0,0,0-.434,1.3,7.684,7.684,0,0,1-.927.412c-.5.2-.807.05-.908-.5,0-.1-.05-.252-.05-.353a8.625,8.625,0,0,1,.151-1.967,35.326,35.326,0,0,1,2.219-6.759c1.009-2.219,2.017-4.489,3.027-6.709.353-.807.706-1.564.958-2.32a.888.888,0,0,0-.353-1.16,1.671,1.671,0,0,0-.5-.3.72.72,0,0,0-1.009.1,4.749,4.749,0,0,0-.605.908c-1.261,2.22-2.472,4.54-3.581,6.86a31.969,31.969,0,0,0-1.709,4.42c-1.355,1.511-2.722,3.01-4.192,4.407a19.588,19.588,0,0,1-3.127,2.623,10.134,10.134,0,0,1-1.261.706,1.052,1.052,0,0,1-1.463-.857c0-.252-.05-.454-.05-.707a12.24,12.24,0,0,1,.706-3.329c.5-1.564,1.11-3.027,1.765-4.54a86.744,86.744,0,0,1,4.237-8.726c.908-1.715,1.866-3.48,2.774-5.2a6.554,6.554,0,0,0,.707-1.614.692.692,0,0,0-.05-.757,1.043,1.043,0,0,0-1.766.151c-.05.05-.1.1-.1.151-.958,1.362-1.866,2.774-2.774,4.237a77.6,77.6,0,0,0-5.5,10.794,1.811,1.811,0,0,1-.353.5c-.5.555-1.009,1.059-1.564,1.563a62.106,62.106,0,0,1-4.59,4.338,16.984,16.984,0,0,1-2.724,1.967,7.2,7.2,0,0,1-1.412.655c-.958.2-1.463-.151-1.564-1.11a4.448,4.448,0,0,1,.151-1.816,31.746,31.746,0,0,1,1.261-3.884,93.579,93.579,0,0,1,4.136-8.827c1.816-3.531,3.732-6.961,5.6-10.442a18.518,18.518,0,0,0,1.059-2.27c.2-.605.1-.857-.4-1.16-.706-.454-1.009-.4-1.513.3-.605.908-1.211,1.816-1.816,2.774q-1.74,2.724-3.329,5.6c-1.463,2.825-2.976,5.6-4.338,8.474-.639,1.336-1.259,2.672-1.806,4.027-.367.5-.767,1.03-1.169,1.521-1.463,1.866-2.925,3.833-4.439,5.649a9.7,9.7,0,0,1-2.169,1.917c-.857.5-1.21.353-1.513-.605a3.942,3.942,0,0,1-.051-1.715,21.534,21.534,0,0,1,.908-3.077,54.9,54.9,0,0,1,2.825-6.053c1.11-2.219,2.169-4.489,3.379-6.658a8.048,8.048,0,0,0,.6-1.362.765.765,0,0,0-.4-.959,2.225,2.225,0,0,0-.807-.3.485.485,0,0,0-.605.2c-.1.151-.2.353-.3.5-.5.858-1.059,1.715-1.715,2.623A2.916,2.916,0,0,0,199,45.175a4.8,4.8,0,0,0-4.54-1.463,7.139,7.139,0,0,0-3.127,1.614,17.18,17.18,0,0,0-2.27,2.421,26.089,26.089,0,0,0-2.875,4.489,23.224,23.224,0,0,0-2.219,6,11.7,11.7,0,0,0-.2,2.623,5.542,5.542,0,0,0,.555,2.219,1.868,1.868,0,0,0,1.211,1.009,3.06,3.06,0,0,0,2.623-.454,9.436,9.436,0,0,0,1.614-1.563c.807-.958,1.614-1.967,2.371-2.976,1.211-1.614,2.371-3.279,3.531-4.893.05-.05.1-.2.252-.2-.1.2-.151.353-.252.555-.2.555-.454,1.16-.706,1.715a21.819,21.819,0,0,0-1.211,4.741,4.374,4.374,0,0,0,.5,2.774,1.963,1.963,0,0,0,2.068,1.059,4.29,4.29,0,0,0,2.169-.857,9.183,9.183,0,0,0,1.917-1.766c1.264-1.62,2.485-3.28,3.705-4.929-.024.08-.051.159-.074.239a13.19,13.19,0,0,0-.605,3.127,4.662,4.662,0,0,0,.454,2.169,2.059,2.059,0,0,0,1.513,1.211,4.122,4.122,0,0,0,1.362.05,8.171,8.171,0,0,0,3.884-1.362,23.183,23.183,0,0,0,4.136-3.531c.757-.757,1.513-1.513,2.27-2.32a.5.5,0,0,1-.05.4c-.252.857-.555,1.665-.757,2.522a12.512,12.512,0,0,0-.3,2.724,3.907,3.907,0,0,0,.353,1.513,2.287,2.287,0,0,0,1.917,1.362,5.739,5.739,0,0,0,3.026-.605,10.23,10.23,0,0,0,2.774-2.068c1.332-1.332,2.6-2.694,3.834-4.084a21.162,21.162,0,0,0-.506,3.782,4.775,4.775,0,0,0,.252,1.564,1.939,1.939,0,0,0,1.866,1.463,5.265,5.265,0,0,0,2.034-.25,5.653,5.653,0,0,0,.033.906,7.378,7.378,0,0,0,2.926,5.095,8.873,8.873,0,0,0,5.6,1.816,10.1,10.1,0,0,0,3.228-.555,1.265,1.265,0,0,0,.353-.2,6.433,6.433,0,0,0,1.614-1.463,7.592,7.592,0,0,0,1.362-4.489,15.32,15.32,0,0,0-.252-3.027c-.4-2.27-1.009-4.438-1.614-6.658-.05-.152-.1-.3-.151-.5-.05-.3,0-.353.252-.454a.716.716,0,0,1,.3-.1c1.412-.454,2.875-.807,4.288-1.11A25.107,25.107,0,0,1,252.767,54a12.631,12.631,0,0,1,2.774.068,13.326,13.326,0,0,0-.757,4.522,7.478,7.478,0,0,0,.2,1.715,6.073,6.073,0,0,0,1.513,3.127A5.271,5.271,0,0,0,261.594,65a7.913,7.913,0,0,0,2.774-1.16,23.649,23.649,0,0,0,4.691-3.985q.575-.593,1.116-1.211l-.058.152a19.071,19.071,0,0,0-1.059,3.783,2.724,2.724,0,0,0,0,.908.8.8,0,0,0,.454.454,2.318,2.318,0,0,0,1.312,0c.3-.1.454-.353.655-.605.858-1.312,1.665-2.623,2.422-3.985a93.977,93.977,0,0,1,5.548-8.474,27.554,27.554,0,0,1,4.035-4.691,10.569,10.569,0,0,1,2.825-1.866c.454-.2.555-.152.605.353a9.784,9.784,0,0,0,.1,1.21,3.312,3.312,0,0,0,1.412,2.472,4.53,4.53,0,0,0,1.21.605,4.021,4.021,0,0,0,1.866.4,1.818,1.818,0,0,0,1.009-.3.622.622,0,0,0,.2-.4c-.05-.2-.2-.252-.353-.3m-33.088,4.186a19.807,19.807,0,0,1,1.311-2.219,23.044,23.044,0,0,1,4.389-4.741,7.626,7.626,0,0,1,3.127-1.563,8.581,8.581,0,0,1,1.967-.1.693.693,0,0,1,.5.4,1.82,1.82,0,0,1,.051,1.362,4.5,4.5,0,0,1-1.261,2.169,18.67,18.67,0,0,1-6.658,4.641,5.863,5.863,0,0,1-2.472.5,3.345,3.345,0,0,1-.706-.05c-.353-.05-.4-.1-.252-.4M192.6,55.868c-.959,1.362-1.917,2.774-2.926,4.036a14.938,14.938,0,0,1-2.472,2.572l-.2.2c-.605.4-.656.4-.857-.3,0-.152-.051-.3-.051-.454a3.839,3.839,0,0,1-.05-.757,8.742,8.742,0,0,1,.605-3.027,27.7,27.7,0,0,1,5.649-10.088,11.2,11.2,0,0,1,2.32-2.068,5.171,5.171,0,0,1,1.917-.706,1.247,1.247,0,0,1,1.16.4,6.763,6.763,0,0,1,.555.706,1.649,1.649,0,0,0,.555.757c.151.1.1.2,0,.3-.353.5-.655,1.009-1.009,1.463-1.765,2.32-3.48,4.641-5.2,6.961m51.244,11.954a4.41,4.41,0,0,1-1.816,2.875,7.209,7.209,0,0,1-1.362.757,4.079,4.079,0,0,1-2.572.05,6.525,6.525,0,0,1-4.489-4.842,4.242,4.242,0,0,1,.1-2.371c.036-.135.079-.266.122-.4.027-.02.054-.037.08-.058a19.179,19.179,0,0,0,2.421-2.118c1.362-1.261,2.572-2.673,3.833-4.085.086-.09.167-.181.251-.271.379-.188.763-.368,1.16-.536.707-.3.605-.252.807.454.5,1.866,1.009,3.732,1.362,5.6a20.551,20.551,0,0,1,.3,3.178,7.578,7.578,0,0,1-.2,1.765" transform="translate(-131.363 -23.611)" fill="#fff"/>
    <path id="Pfad_4" data-name="Pfad 4" d="M667.13,29.256c-1.162-.452-4.045-.608-7.967-.6a26.655,26.655,0,0,0-8.922,1.5c-.151.617,2.7,2.575,2.7,2.575a15.5,15.5,0,0,1,6.188-1.288c3.4.042,6.75-.062,7.394,1.533s-7.852,13.312-14.76,16.272c-3.992,1.711-10.264,2.566-12.26-1.14-5.417-10.549,2.281-22.809,8.265-31.835a39.642,39.642,0,0,1,4.022-4.35,34.347,34.347,0,0,1,4.792-3.783,19.572,19.572,0,0,1,5.246-2.32,8.522,8.522,0,0,1,4.893.1,2.642,2.642,0,0,1,1.715,1.564,6.679,6.679,0,0,1,.353.908,8.143,8.143,0,0,1,.05,2.926,11.619,11.619,0,0,1-1.362,3.833,21.077,21.077,0,0,1-2.9,4.251c-1.7,2.76-4.834,3.9-7.686,5.327,3.992,2.281,7.413-1.711,10.211-4.069a24.857,24.857,0,0,0,3.852-5.811,8.755,8.755,0,0,0,.908-4.54A6.3,6.3,0,0,0,670.2,6.275c-2.926-2.926-6.356-4.086-10.391-2.976a21.1,21.1,0,0,0-6.2,2.875,34.5,34.5,0,0,0-6.608,5.8,41.25,41.25,0,0,0-3.556,4.413c-6.505,9.767-15.344,28.87-3.939,34.857s21.21-5.117,24.561-9.425,5.543-9.261,5.236-10.376a3.141,3.141,0,0,0-2.167-2.188" transform="translate(-453.234 -2.062)" fill="#fff"/>
    <path id="Pfad_5" data-name="Pfad 5" d="M873.04,54.7a1.781,1.781,0,0,0,1.261-1.564.607.607,0,0,0-.3-.656c-.151-.05-.252-.151-.4-.151s-.2-.05-.252-.2a.887.887,0,0,0-.807-.555c-.2,0-.353.151-.5.353a3.033,3.033,0,0,0-.454,1.866,1.128,1.128,0,0,0,1.463.908m-.05-1.816c.05-.05.1-.151.2-.1.05.05.05.1.05.2a1.43,1.43,0,0,1-.4.555.979.979,0,0,1,.151-.656" transform="translate(-623.069 -36.869)" fill="#fff"/>
    <path id="Pfad_6" data-name="Pfad 6" d="M838.05,54.6a1.122,1.122,0,0,0-.656.4c-.353.454-.706.908-1.059,1.312a41.557,41.557,0,0,1-3.127,3.48c-.757.706-1.513,1.412-2.321,2.169a15.92,15.92,0,0,1-1.715,1.412,10.44,10.44,0,0,1-2.623,1.513,2.1,2.1,0,0,1-1.362.05,3.37,3.37,0,0,1-2.371-2.068,7.719,7.719,0,0,1-.554-2.421,11.834,11.834,0,0,1,1.059-5.094c.151-.353.151-.353.454-.252a8.806,8.806,0,0,0,1.917.454,7.849,7.849,0,0,0,3.581-.706,20.806,20.806,0,0,0,3.985-2.371,19.383,19.383,0,0,0,3.178-2.925,5.758,5.758,0,0,0,1.11-2.22,2.708,2.708,0,0,0-.5-2.472,3.456,3.456,0,0,0-1.059-.857,5.843,5.843,0,0,0-2.421-.706,6.065,6.065,0,0,0-3.531.605,15.242,15.242,0,0,0-3.935,2.724,22.394,22.394,0,0,0-5.3,7.465,13.928,13.928,0,0,0-.611,1.668c-1.344,1.713-2.69,3.419-4.079,5.04a22.051,22.051,0,0,1-3.279,3.228,3.958,3.958,0,0,1-1.412.807.7.7,0,0,1-.958-.353l-.152-.454a4.676,4.676,0,0,1-.1-1.463,16.624,16.624,0,0,1,.5-2.673,64.877,64.877,0,0,1,3.077-8.423c1.261-2.724,2.472-5.5,3.783-8.222,1.11-2.32,2.168-4.691,3.48-6.91.454-.757.4-.908-.252-1.513l-.05-.05c-.454-.4-.757-.353-1.16.05a7.288,7.288,0,0,0-1.16,1.614c-.5.908-1.059,1.866-1.513,2.774a83.775,83.775,0,0,1-4.237,7.465c-.2.3-.252.3-.454,0a6.646,6.646,0,0,0-2.724-1.816,3.635,3.635,0,0,0-2.421-.1,8.369,8.369,0,0,0-2.774,1.362,16.317,16.317,0,0,0-4.792,6.154,23.123,23.123,0,0,0-1.276,3.251c-.7.715-1.393,1.455-2.053,2.2-.605.605-1.21,1.211-1.816,1.866a49.621,49.621,0,0,1-4.086,3.884,10.047,10.047,0,0,1-2.976,1.816c-.5.2-.807.05-.908-.5,0-.1-.05-.252-.05-.353a8.637,8.637,0,0,1,.151-1.967,35.354,35.354,0,0,1,2.219-6.759c1.009-2.22,2.018-4.489,3.027-6.709.353-.807.706-1.564.958-2.32a.888.888,0,0,0-.353-1.16,1.675,1.675,0,0,0-.5-.3.72.72,0,0,0-1.009.1,4.718,4.718,0,0,0-.605.908c-1.261,2.219-2.472,4.54-3.581,6.86a32.226,32.226,0,0,0-1.238,2.993c-.681.837-1.367,1.647-2.09,2.454-1.059,1.16-2.068,2.32-3.077,3.48-.757.858-1.463,1.665-2.27,2.472a7.073,7.073,0,0,1-1.513,1.16.952.952,0,0,1-1.261-.2,1.831,1.831,0,0,1-.555-1.311,10.458,10.458,0,0,1,.3-3.077,50.178,50.178,0,0,1,3.127-8.474c.858-1.917,1.664-3.834,2.573-5.7a3.962,3.962,0,0,0,.4-1.312.805.805,0,0,0-.555-.958c-.2-.1-.4-.151-.605-.252a.587.587,0,0,0-.807.4c-.252.5-.554.958-.857,1.463a23.544,23.544,0,0,0-1.866,3.531,17.721,17.721,0,0,1-1.665,3.027c-.454.756-.958,1.513-1.412,2.219-1.715,2.572-3.38,5.145-5.347,7.566a17.752,17.752,0,0,1-2.774,2.724,2.862,2.862,0,0,1-.656.4c-.252.1-.353.1-.454-.151a1.5,1.5,0,0,1-.2-.5,8.267,8.267,0,0,1-.1-1.16,12.153,12.153,0,0,1,.4-3.279,70.7,70.7,0,0,1,3.228-9.533c.5-1.362,1.11-2.724,1.665-4.085.05-.252.152-.5.2-.757a.675.675,0,0,0-.3-.807,1.917,1.917,0,0,0-.858-.4.7.7,0,0,0-.857.252l-.3.454a43.01,43.01,0,0,0-2.623,5.3,39.009,39.009,0,0,0-2.774,9.231,13.966,13.966,0,0,0-.151,3.834,6.387,6.387,0,0,0,.605,1.967,1.747,1.747,0,0,0,1.412.908,3.89,3.89,0,0,0,2.219-.5,7.765,7.765,0,0,0,1.765-1.412,31.113,31.113,0,0,0,2.623-3.077c1.11-1.463,2.118-3.026,3.178-4.59a.634.634,0,0,1,.3-.353,26,26,0,0,0-1.009,5.094,8.4,8.4,0,0,0,.252,2.522,2.584,2.584,0,0,0,.5,1.059,2.52,2.52,0,0,0,2.724,1.059,5.284,5.284,0,0,0,2.068-1.009,19.1,19.1,0,0,0,2.472-2.472c.959-1.009,1.866-2.068,2.724-3.077.482-.562.961-1.117,1.433-1.676-.041.155-.084.31-.123.465a24.011,24.011,0,0,0-.656,4.489,4.771,4.771,0,0,0,.252,1.564A1.939,1.939,0,0,0,786,66.5a5.019,5.019,0,0,0,2.421-.4,11.873,11.873,0,0,0,2.018-1.211,19.163,19.163,0,0,0,2.421-2.119c1.362-1.261,2.573-2.673,3.834-4.085.344-.363.674-.726,1-1.091-.014.061-.029.122-.042.183a21.618,21.618,0,0,0-.555,5.095,7.661,7.661,0,0,0,.5,2.37,1.9,1.9,0,0,0,1.564,1.16,3.176,3.176,0,0,0,2.925-.857c.252-.252.555-.5.807-.807a52.815,52.815,0,0,0,3.733-5.095c.959-1.564,1.917-3.077,2.875-4.641a1.545,1.545,0,0,1,.252-.353.308.308,0,0,1-.05.3A35.343,35.343,0,0,0,808.391,60a10.564,10.564,0,0,0-.151,3.329,4.115,4.115,0,0,0,.605,1.715,2.13,2.13,0,0,0,1.362.807,6.426,6.426,0,0,0,.958-.05,5.669,5.669,0,0,0,2.724-1.412,25.187,25.187,0,0,0,3.228-3.329c.915-1.072,1.788-2.186,2.648-3.312a14.32,14.32,0,0,0-.127,1.9,7.486,7.486,0,0,0,.2,1.715,6.073,6.073,0,0,0,1.513,3.127,5.27,5.27,0,0,0,5.094,1.564,7.918,7.918,0,0,0,2.774-1.16,23.644,23.644,0,0,0,4.691-3.985,40.641,40.641,0,0,0,4.338-5.4,1.323,1.323,0,0,0,.252-.454c.1-.353-.1-.5-.454-.454M824.128,53.59a19.715,19.715,0,0,1,1.312-2.219,23.029,23.029,0,0,1,4.388-4.741,7.629,7.629,0,0,1,3.127-1.564,8.581,8.581,0,0,1,1.967-.1.694.694,0,0,1,.5.4,1.821,1.821,0,0,1,.051,1.362,4.5,4.5,0,0,1-1.261,2.169,18.674,18.674,0,0,1-6.658,4.64,5.863,5.863,0,0,1-2.472.5,3.327,3.327,0,0,1-.706-.05c-.353-.05-.4-.1-.252-.4m-14.576-1.866c-1.664,2.572-3.279,5.145-4.943,7.768-.858,1.261-1.715,2.522-2.674,3.733a9.239,9.239,0,0,1-1.513,1.614c-.4.353-.5.3-.656-.2a7.672,7.672,0,0,1-.152-1.513,16.564,16.564,0,0,1,.5-3.48,24.31,24.31,0,0,1,4.438-9.785,9.055,9.055,0,0,1,3.43-2.875,5.274,5.274,0,0,1,1.261-.4,1.387,1.387,0,0,1,1.211.4,6.555,6.555,0,0,1,.907,1.16.528.528,0,0,1-.05.656c-.605.959-1.16,1.967-1.765,2.926" transform="translate(-544.248 -24.662)" fill="#fff"/>
  </g>
</svg>
