<?xml version="1.0" encoding="utf-8"?>
<!-- Generator: Adobe Illustrator 27.4.0, SVG Export Plug-In . SVG Version: 6.00 Build 0)  -->
<svg version="1.1" id="Ebene_1" xmlns="http://www.w3.org/2000/svg" xmlns:xlink="http://www.w3.org/1999/xlink" x="0px" y="0px"
	 viewBox="0 0 20 20" style="enable-background:new 0 0 20 20;" xml:space="preserve">
<g id="Layer_x0020_1">
	<path d="M18.8,3.9c-0.4-0.4-0.9-0.6-1.5-0.7C16.1,3.1,14.9,3,13.7,3S11.2,3,10,3S7.5,3,6.3,3S3.9,3.1,2.6,3.2
		c-0.5,0.1-1,0.3-1.4,0.7S0.5,4.8,0.3,5.3C0.2,6.1,0.1,6.9,0,7.7C0,8.5,0,9.2,0,10s0,1.5,0,2.3s0.1,1.6,0.3,2.3
		c0.1,0.6,0.4,1.1,0.8,1.4c0.4,0.4,0.9,0.6,1.5,0.7C3.9,16.9,5.1,17,6.3,17s2.5,0,3.7,0s2.5,0,3.7,0s2.5-0.1,3.7-0.2
		c0.6-0.1,1.1-0.3,1.5-0.7c0.4-0.4,0.7-0.9,0.8-1.4c0.2-0.8,0.3-1.5,0.3-2.3s0-1.6,0-2.3l0,0l0,0l0,0c0-1.5,0-3.1-0.3-4.6
		C19.5,4.8,19.2,4.3,18.8,3.9L18.8,3.9z M7.3,13V6.6V6.2l0.3,0.2c0.9,0.5,1.9,1,2.8,1.5c1.1,0.6,2.3,1.2,3.4,1.8l0.4,0.2L13.8,10
		l-3.1,1.6c-1,0.5-2.1,1.1-3.1,1.6l-0.3,0.2L7.3,13L7.3,13z"/>
</g>
</svg>
